<mxfile host="Electron" agent="Mozilla/5.0 (X11; Linux x86_64) AppleWebKit/537.36 (KHTML, like Gecko) draw.io/27.0.5 Chrome/134.0.6998.205 Electron/35.4.0 Safari/537.36" version="27.0.5">
  <diagram name="Page-1" id="hICVb3PXgQp4XZ-NFqc1">
    <mxGraphModel dx="1506" dy="1575" grid="1" gridSize="1" guides="1" tooltips="1" connect="1" arrows="1" fold="1" page="1" pageScale="1" pageWidth="827" pageHeight="1169" math="0" shadow="0">
      <root>
        <mxCell id="0" />
        <mxCell id="1" parent="0" />
        <mxCell id="2St7rIE07s7wYRbuLZ6n-52" style="edgeStyle=orthogonalEdgeStyle;rounded=0;orthogonalLoop=1;jettySize=auto;html=1;exitX=1;exitY=0.25;exitDx=0;exitDy=0;exitPerimeter=0;entryX=0;entryY=0.5;entryDx=0;entryDy=0;endArrow=none;startFill=0;" parent="1" source="2St7rIE07s7wYRbuLZ6n-1" target="2St7rIE07s7wYRbuLZ6n-51" edge="1">
          <mxGeometry relative="1" as="geometry" />
        </mxCell>
        <mxCell id="2St7rIE07s7wYRbuLZ6n-1" value="" style="verticalLabelPosition=bottom;shadow=0;dashed=0;align=center;html=1;verticalAlign=top;shape=mxgraph.electrical.logic_gates.d_type_flip-flop;" parent="1" vertex="1">
          <mxGeometry x="128" y="252" width="100" height="80" as="geometry" />
        </mxCell>
        <mxCell id="2St7rIE07s7wYRbuLZ6n-5" style="edgeStyle=orthogonalEdgeStyle;rounded=0;orthogonalLoop=1;jettySize=auto;html=1;exitX=1;exitY=0.25;exitDx=0;exitDy=0;exitPerimeter=0;entryX=0.75;entryY=1;entryDx=0;entryDy=0;" parent="1" source="2St7rIE07s7wYRbuLZ6n-2" target="2St7rIE07s7wYRbuLZ6n-4" edge="1">
          <mxGeometry relative="1" as="geometry">
            <Array as="points">
              <mxPoint x="434" y="273" />
              <mxPoint x="434" y="358" />
              <mxPoint x="249" y="358" />
              <mxPoint x="249" y="294" />
            </Array>
          </mxGeometry>
        </mxCell>
        <mxCell id="2St7rIE07s7wYRbuLZ6n-2" value="" style="verticalLabelPosition=bottom;shadow=0;dashed=0;align=center;html=1;verticalAlign=top;shape=mxgraph.electrical.logic_gates.d_type_flip-flop;" parent="1" vertex="1">
          <mxGeometry x="315.5" y="253" width="100" height="80" as="geometry" />
        </mxCell>
        <mxCell id="2St7rIE07s7wYRbuLZ6n-21" style="edgeStyle=orthogonalEdgeStyle;rounded=0;orthogonalLoop=1;jettySize=auto;html=1;exitX=1;exitY=0.25;exitDx=0;exitDy=0;exitPerimeter=0;entryX=0.75;entryY=1;entryDx=0;entryDy=0;" parent="1" source="2St7rIE07s7wYRbuLZ6n-3" target="2St7rIE07s7wYRbuLZ6n-18" edge="1">
          <mxGeometry relative="1" as="geometry">
            <Array as="points">
              <mxPoint x="640" y="274" />
              <mxPoint x="640" y="359" />
              <mxPoint x="448" y="359" />
              <mxPoint x="448" y="295" />
            </Array>
          </mxGeometry>
        </mxCell>
        <mxCell id="2St7rIE07s7wYRbuLZ6n-3" value="" style="verticalLabelPosition=bottom;shadow=0;dashed=0;align=center;html=1;verticalAlign=top;shape=mxgraph.electrical.logic_gates.d_type_flip-flop;" parent="1" vertex="1">
          <mxGeometry x="520" y="254" width="100" height="80" as="geometry" />
        </mxCell>
        <mxCell id="2St7rIE07s7wYRbuLZ6n-4" value="" style="shape=trapezoid;perimeter=trapezoidPerimeter;whiteSpace=wrap;html=1;fixedSize=1;rotation=90;" parent="1" vertex="1">
          <mxGeometry x="237.5" y="261.5" width="85" height="22" as="geometry" />
        </mxCell>
        <mxCell id="2St7rIE07s7wYRbuLZ6n-7" style="edgeStyle=orthogonalEdgeStyle;rounded=0;orthogonalLoop=1;jettySize=auto;html=1;exitX=0.5;exitY=0;exitDx=0;exitDy=0;entryX=0;entryY=0.25;entryDx=0;entryDy=0;entryPerimeter=0;" parent="1" source="2St7rIE07s7wYRbuLZ6n-4" target="2St7rIE07s7wYRbuLZ6n-2" edge="1">
          <mxGeometry relative="1" as="geometry" />
        </mxCell>
        <mxCell id="2St7rIE07s7wYRbuLZ6n-10" value="0" style="rounded=0;whiteSpace=wrap;html=1;" parent="1" vertex="1">
          <mxGeometry x="160" y="143" width="25" height="25" as="geometry" />
        </mxCell>
        <mxCell id="2St7rIE07s7wYRbuLZ6n-11" value="1" style="rounded=0;whiteSpace=wrap;html=1;" parent="1" vertex="1">
          <mxGeometry x="353" y="147" width="25" height="25" as="geometry" />
        </mxCell>
        <mxCell id="2St7rIE07s7wYRbuLZ6n-12" value="0" style="rounded=0;whiteSpace=wrap;html=1;" parent="1" vertex="1">
          <mxGeometry x="552" y="150" width="25" height="25" as="geometry" />
        </mxCell>
        <mxCell id="2St7rIE07s7wYRbuLZ6n-14" value="0" style="rounded=0;whiteSpace=wrap;html=1;" parent="1" vertex="1">
          <mxGeometry x="2" y="141" width="25" height="25" as="geometry" />
        </mxCell>
        <mxCell id="2St7rIE07s7wYRbuLZ6n-17" style="edgeStyle=orthogonalEdgeStyle;rounded=0;orthogonalLoop=1;jettySize=auto;html=1;exitX=1;exitY=0.25;exitDx=0;exitDy=0;exitPerimeter=0;entryX=0.5;entryY=1;entryDx=0;entryDy=0;" parent="1" target="2St7rIE07s7wYRbuLZ6n-18" edge="1">
          <mxGeometry relative="1" as="geometry">
            <mxPoint x="420" y="273" as="sourcePoint" />
          </mxGeometry>
        </mxCell>
        <mxCell id="2St7rIE07s7wYRbuLZ6n-18" value="" style="shape=trapezoid;perimeter=trapezoidPerimeter;whiteSpace=wrap;html=1;fixedSize=1;rotation=90;" parent="1" vertex="1">
          <mxGeometry x="429.5" y="262.5" width="85" height="22" as="geometry" />
        </mxCell>
        <mxCell id="2St7rIE07s7wYRbuLZ6n-19" style="edgeStyle=orthogonalEdgeStyle;rounded=0;orthogonalLoop=1;jettySize=auto;html=1;exitX=0.5;exitY=0;exitDx=0;exitDy=0;entryX=0;entryY=0.25;entryDx=0;entryDy=0;entryPerimeter=0;" parent="1" source="2St7rIE07s7wYRbuLZ6n-18" target="2St7rIE07s7wYRbuLZ6n-3" edge="1">
          <mxGeometry relative="1" as="geometry">
            <mxPoint x="514" y="274" as="targetPoint" />
          </mxGeometry>
        </mxCell>
        <mxCell id="2St7rIE07s7wYRbuLZ6n-22" value="" style="shape=trapezoid;perimeter=trapezoidPerimeter;whiteSpace=wrap;html=1;fixedSize=1;rotation=90;" parent="1" vertex="1">
          <mxGeometry x="51" y="261" width="85" height="22" as="geometry" />
        </mxCell>
        <mxCell id="2St7rIE07s7wYRbuLZ6n-24" style="edgeStyle=orthogonalEdgeStyle;rounded=0;orthogonalLoop=1;jettySize=auto;html=1;entryX=0;entryY=0.25;entryDx=0;entryDy=0;entryPerimeter=0;" parent="1" source="2St7rIE07s7wYRbuLZ6n-22" target="2St7rIE07s7wYRbuLZ6n-1" edge="1">
          <mxGeometry relative="1" as="geometry" />
        </mxCell>
        <mxCell id="2St7rIE07s7wYRbuLZ6n-68" style="edgeStyle=orthogonalEdgeStyle;rounded=0;orthogonalLoop=1;jettySize=auto;html=1;entryX=0;entryY=1;entryDx=0;entryDy=0;" parent="1" source="2St7rIE07s7wYRbuLZ6n-25" target="2St7rIE07s7wYRbuLZ6n-58" edge="1">
          <mxGeometry relative="1" as="geometry">
            <Array as="points">
              <mxPoint x="40" y="202" />
              <mxPoint x="60" y="203" />
            </Array>
          </mxGeometry>
        </mxCell>
        <mxCell id="2St7rIE07s7wYRbuLZ6n-25" value="Text" style="text;html=1;align=center;verticalAlign=middle;whiteSpace=wrap;rounded=0;" parent="1" vertex="1">
          <mxGeometry x="-10.5" y="194.5" width="30" height="15" as="geometry" />
        </mxCell>
        <mxCell id="2St7rIE07s7wYRbuLZ6n-28" value="wr|shft |-| D | D+1&lt;div&gt;00 -&amp;gt; Q | Q+1&lt;/div&gt;&lt;div&gt;01 -&amp;gt; Q-1 | Q-1&lt;/div&gt;&lt;div&gt;10 -&amp;gt; I | Q+1&lt;/div&gt;&lt;div&gt;11 -&amp;gt; Q-1 | I&lt;/div&gt;&lt;div&gt;&lt;br&gt;&lt;/div&gt;" style="text;html=1;align=center;verticalAlign=middle;whiteSpace=wrap;rounded=0;" parent="1" vertex="1">
          <mxGeometry x="294" y="-53" width="133" height="81" as="geometry" />
        </mxCell>
        <mxCell id="2St7rIE07s7wYRbuLZ6n-29" value="empty" style="text;html=1;align=center;verticalAlign=middle;whiteSpace=wrap;rounded=0;" parent="1" vertex="1">
          <mxGeometry x="533" y="102" width="60" height="30" as="geometry" />
        </mxCell>
        <mxCell id="2St7rIE07s7wYRbuLZ6n-30" value="full" style="text;html=1;align=center;verticalAlign=middle;whiteSpace=wrap;rounded=0;" parent="1" vertex="1">
          <mxGeometry x="-18" y="90" width="60" height="30" as="geometry" />
        </mxCell>
        <mxCell id="2St7rIE07s7wYRbuLZ6n-31" value="1" style="rounded=0;whiteSpace=wrap;html=1;" parent="1" vertex="1">
          <mxGeometry x="151" y="406" width="25" height="25" as="geometry" />
        </mxCell>
        <mxCell id="2St7rIE07s7wYRbuLZ6n-32" value="1" style="rounded=0;whiteSpace=wrap;html=1;" parent="1" vertex="1">
          <mxGeometry x="344" y="410" width="25" height="25" as="geometry" />
        </mxCell>
        <mxCell id="2St7rIE07s7wYRbuLZ6n-33" value="0" style="rounded=0;whiteSpace=wrap;html=1;" parent="1" vertex="1">
          <mxGeometry x="543" y="413" width="25" height="25" as="geometry" />
        </mxCell>
        <mxCell id="2St7rIE07s7wYRbuLZ6n-34" value="0" style="rounded=0;whiteSpace=wrap;html=1;" parent="1" vertex="1">
          <mxGeometry x="-7" y="404" width="25" height="25" as="geometry" />
        </mxCell>
        <mxCell id="2St7rIE07s7wYRbuLZ6n-35" value="rd mask" style="text;html=1;align=center;verticalAlign=middle;whiteSpace=wrap;rounded=0;" parent="1" vertex="1">
          <mxGeometry x="-83" y="408" width="60" height="30" as="geometry" />
        </mxCell>
        <mxCell id="2St7rIE07s7wYRbuLZ6n-36" value="wr en" style="text;html=1;align=center;verticalAlign=middle;whiteSpace=wrap;rounded=0;" parent="1" vertex="1">
          <mxGeometry x="-89" y="132" width="60" height="30" as="geometry" />
        </mxCell>
        <mxCell id="2St7rIE07s7wYRbuLZ6n-37" value="rd_bit" style="text;html=1;align=center;verticalAlign=middle;whiteSpace=wrap;rounded=0;" parent="1" vertex="1">
          <mxGeometry x="-77" y="463" width="60" height="30" as="geometry" />
        </mxCell>
        <mxCell id="2St7rIE07s7wYRbuLZ6n-42" value="0" style="rounded=0;whiteSpace=wrap;html=1;" parent="1" vertex="1">
          <mxGeometry x="150" y="465" width="25" height="25" as="geometry" />
        </mxCell>
        <mxCell id="2St7rIE07s7wYRbuLZ6n-43" value="1" style="rounded=0;whiteSpace=wrap;html=1;" parent="1" vertex="1">
          <mxGeometry x="343" y="469" width="25" height="25" as="geometry" />
        </mxCell>
        <mxCell id="2St7rIE07s7wYRbuLZ6n-44" value="0" style="rounded=0;whiteSpace=wrap;html=1;" parent="1" vertex="1">
          <mxGeometry x="542" y="472" width="25" height="25" as="geometry" />
        </mxCell>
        <mxCell id="2St7rIE07s7wYRbuLZ6n-45" value="0" style="rounded=0;whiteSpace=wrap;html=1;" parent="1" vertex="1">
          <mxGeometry x="-8" y="463" width="25" height="25" as="geometry" />
        </mxCell>
        <mxCell id="2St7rIE07s7wYRbuLZ6n-47" value="" style="shape=trapezoid;perimeter=trapezoidPerimeter;whiteSpace=wrap;html=1;fixedSize=1;rotation=-180;" parent="1" vertex="1">
          <mxGeometry x="47" y="378" width="637" height="22" as="geometry" />
        </mxCell>
        <mxCell id="2St7rIE07s7wYRbuLZ6n-54" style="edgeStyle=orthogonalEdgeStyle;rounded=0;orthogonalLoop=1;jettySize=auto;html=1;entryX=0.75;entryY=1;entryDx=0;entryDy=0;" parent="1" source="2St7rIE07s7wYRbuLZ6n-49" target="2St7rIE07s7wYRbuLZ6n-22" edge="1">
          <mxGeometry relative="1" as="geometry" />
        </mxCell>
        <mxCell id="2St7rIE07s7wYRbuLZ6n-49" value="" style="ellipse;whiteSpace=wrap;html=1;aspect=fixed;fillColor=#000000;" parent="1" vertex="1">
          <mxGeometry x="236" y="356" width="2" height="2" as="geometry" />
        </mxCell>
        <mxCell id="2St7rIE07s7wYRbuLZ6n-53" style="edgeStyle=orthogonalEdgeStyle;rounded=0;orthogonalLoop=1;jettySize=auto;html=1;entryX=0.5;entryY=0;entryDx=0;entryDy=0;endArrow=none;startFill=0;" parent="1" source="2St7rIE07s7wYRbuLZ6n-51" target="2St7rIE07s7wYRbuLZ6n-49" edge="1">
          <mxGeometry relative="1" as="geometry" />
        </mxCell>
        <mxCell id="2St7rIE07s7wYRbuLZ6n-57" style="edgeStyle=orthogonalEdgeStyle;rounded=0;orthogonalLoop=1;jettySize=auto;html=1;entryX=0.5;entryY=1;entryDx=0;entryDy=0;" parent="1" source="2St7rIE07s7wYRbuLZ6n-51" target="2St7rIE07s7wYRbuLZ6n-4" edge="1">
          <mxGeometry relative="1" as="geometry" />
        </mxCell>
        <mxCell id="2St7rIE07s7wYRbuLZ6n-51" value="" style="ellipse;whiteSpace=wrap;html=1;aspect=fixed;fillColor=#000000;" parent="1" vertex="1">
          <mxGeometry x="236" y="271.5" width="2" height="2" as="geometry" />
        </mxCell>
        <mxCell id="2St7rIE07s7wYRbuLZ6n-55" style="edgeStyle=orthogonalEdgeStyle;rounded=0;orthogonalLoop=1;jettySize=auto;html=1;entryX=0.702;entryY=0.979;entryDx=0;entryDy=0;entryPerimeter=0;" parent="1" source="2St7rIE07s7wYRbuLZ6n-49" target="2St7rIE07s7wYRbuLZ6n-47" edge="1">
          <mxGeometry relative="1" as="geometry" />
        </mxCell>
        <mxCell id="2St7rIE07s7wYRbuLZ6n-60" style="edgeStyle=orthogonalEdgeStyle;rounded=0;orthogonalLoop=1;jettySize=auto;html=1;entryX=0.25;entryY=1;entryDx=0;entryDy=0;" parent="1" source="2St7rIE07s7wYRbuLZ6n-58" target="2St7rIE07s7wYRbuLZ6n-22" edge="1">
          <mxGeometry relative="1" as="geometry">
            <Array as="points">
              <mxPoint x="61" y="251" />
            </Array>
          </mxGeometry>
        </mxCell>
        <mxCell id="2St7rIE07s7wYRbuLZ6n-63" style="edgeStyle=orthogonalEdgeStyle;rounded=0;orthogonalLoop=1;jettySize=auto;html=1;entryX=0;entryY=0.5;entryDx=0;entryDy=0;" parent="1" source="2St7rIE07s7wYRbuLZ6n-58" target="2St7rIE07s7wYRbuLZ6n-61" edge="1">
          <mxGeometry relative="1" as="geometry">
            <Array as="points">
              <mxPoint x="196" y="202" />
              <mxPoint x="196" y="202" />
            </Array>
          </mxGeometry>
        </mxCell>
        <mxCell id="2St7rIE07s7wYRbuLZ6n-58" value="" style="ellipse;whiteSpace=wrap;html=1;aspect=fixed;fillColor=#000000;" parent="1" vertex="1">
          <mxGeometry x="60" y="201" width="2" height="2" as="geometry" />
        </mxCell>
        <mxCell id="2St7rIE07s7wYRbuLZ6n-62" style="edgeStyle=orthogonalEdgeStyle;rounded=0;orthogonalLoop=1;jettySize=auto;html=1;entryX=0.25;entryY=1;entryDx=0;entryDy=0;" parent="1" source="2St7rIE07s7wYRbuLZ6n-61" target="2St7rIE07s7wYRbuLZ6n-4" edge="1">
          <mxGeometry relative="1" as="geometry">
            <Array as="points">
              <mxPoint x="237" y="251" />
            </Array>
          </mxGeometry>
        </mxCell>
        <mxCell id="2St7rIE07s7wYRbuLZ6n-61" value="" style="ellipse;whiteSpace=wrap;html=1;aspect=fixed;fillColor=#000000;" parent="1" vertex="1">
          <mxGeometry x="236" y="201" width="2" height="2" as="geometry" />
        </mxCell>
        <mxCell id="2St7rIE07s7wYRbuLZ6n-65" style="edgeStyle=orthogonalEdgeStyle;rounded=0;orthogonalLoop=1;jettySize=auto;html=1;entryX=0.25;entryY=1;entryDx=0;entryDy=0;" parent="1" source="2St7rIE07s7wYRbuLZ6n-64" target="2St7rIE07s7wYRbuLZ6n-18" edge="1">
          <mxGeometry relative="1" as="geometry">
            <Array as="points">
              <mxPoint x="420" y="252" />
            </Array>
          </mxGeometry>
        </mxCell>
        <mxCell id="2St7rIE07s7wYRbuLZ6n-64" value="" style="ellipse;whiteSpace=wrap;html=1;aspect=fixed;fillColor=#000000;" parent="1" vertex="1">
          <mxGeometry x="419" y="201" width="2" height="2" as="geometry" />
        </mxCell>
        <mxCell id="2St7rIE07s7wYRbuLZ6n-66" style="edgeStyle=orthogonalEdgeStyle;rounded=0;orthogonalLoop=1;jettySize=auto;html=1;entryX=0;entryY=0.5;entryDx=0;entryDy=0;" parent="1" source="2St7rIE07s7wYRbuLZ6n-61" target="2St7rIE07s7wYRbuLZ6n-64" edge="1">
          <mxGeometry relative="1" as="geometry">
            <Array as="points">
              <mxPoint x="374" y="202" />
              <mxPoint x="374" y="202" />
            </Array>
          </mxGeometry>
        </mxCell>
        <mxCell id="sSFCIGVi9jQbeR_iUd0o-9" style="edgeStyle=orthogonalEdgeStyle;rounded=0;orthogonalLoop=1;jettySize=auto;html=1;exitX=0.5;exitY=0;exitDx=0;exitDy=0;entryX=0.75;entryY=1;entryDx=0;entryDy=0;" edge="1" parent="1" source="sSFCIGVi9jQbeR_iUd0o-1" target="sSFCIGVi9jQbeR_iUd0o-2">
          <mxGeometry relative="1" as="geometry" />
        </mxCell>
        <mxCell id="sSFCIGVi9jQbeR_iUd0o-10" style="edgeStyle=orthogonalEdgeStyle;rounded=0;orthogonalLoop=1;jettySize=auto;html=1;exitX=0.5;exitY=0;exitDx=0;exitDy=0;" edge="1" parent="1" source="sSFCIGVi9jQbeR_iUd0o-1">
          <mxGeometry relative="1" as="geometry">
            <mxPoint x="258" y="32" as="targetPoint" />
          </mxGeometry>
        </mxCell>
        <mxCell id="sSFCIGVi9jQbeR_iUd0o-1" value="" style="shape=trapezoid;perimeter=trapezoidPerimeter;whiteSpace=wrap;html=1;fixedSize=1;rotation=90;size=13;" vertex="1" parent="1">
          <mxGeometry x="75" y="22" width="57" height="22" as="geometry" />
        </mxCell>
        <mxCell id="sSFCIGVi9jQbeR_iUd0o-2" value="" style="shape=trapezoid;perimeter=trapezoidPerimeter;whiteSpace=wrap;html=1;fixedSize=1;rotation=90;size=13;" vertex="1" parent="1">
          <mxGeometry x="138" y="-18" width="57" height="22" as="geometry" />
        </mxCell>
        <mxCell id="sSFCIGVi9jQbeR_iUd0o-6" style="edgeStyle=orthogonalEdgeStyle;rounded=0;orthogonalLoop=1;jettySize=auto;html=1;entryX=0.25;entryY=1;entryDx=0;entryDy=0;" edge="1" parent="1" source="sSFCIGVi9jQbeR_iUd0o-3" target="sSFCIGVi9jQbeR_iUd0o-1">
          <mxGeometry relative="1" as="geometry" />
        </mxCell>
        <mxCell id="sSFCIGVi9jQbeR_iUd0o-3" value="I" style="text;html=1;align=center;verticalAlign=middle;whiteSpace=wrap;rounded=0;" vertex="1" parent="1">
          <mxGeometry x="48" y="10" width="12" height="17" as="geometry" />
        </mxCell>
        <mxCell id="sSFCIGVi9jQbeR_iUd0o-5" style="edgeStyle=orthogonalEdgeStyle;rounded=0;orthogonalLoop=1;jettySize=auto;html=1;entryX=0.25;entryY=1;entryDx=0;entryDy=0;" edge="1" parent="1" source="sSFCIGVi9jQbeR_iUd0o-4" target="sSFCIGVi9jQbeR_iUd0o-2">
          <mxGeometry relative="1" as="geometry" />
        </mxCell>
        <mxCell id="sSFCIGVi9jQbeR_iUd0o-4" value="Q-1" style="text;html=1;align=center;verticalAlign=middle;whiteSpace=wrap;rounded=0;" vertex="1" parent="1">
          <mxGeometry x="101" y="-29" width="24" height="17" as="geometry" />
        </mxCell>
        <mxCell id="sSFCIGVi9jQbeR_iUd0o-8" style="edgeStyle=orthogonalEdgeStyle;rounded=0;orthogonalLoop=1;jettySize=auto;html=1;entryX=0.75;entryY=1;entryDx=0;entryDy=0;" edge="1" parent="1" source="sSFCIGVi9jQbeR_iUd0o-7" target="sSFCIGVi9jQbeR_iUd0o-1">
          <mxGeometry relative="1" as="geometry" />
        </mxCell>
        <mxCell id="sSFCIGVi9jQbeR_iUd0o-7" value="Q" style="text;html=1;align=center;verticalAlign=middle;whiteSpace=wrap;rounded=0;" vertex="1" parent="1">
          <mxGeometry x="44" y="39" width="18" height="17" as="geometry" />
        </mxCell>
        <mxCell id="sSFCIGVi9jQbeR_iUd0o-11" value="D" style="text;html=1;align=center;verticalAlign=middle;whiteSpace=wrap;rounded=0;" vertex="1" parent="1">
          <mxGeometry x="183" y="-18.5" width="21" height="23" as="geometry" />
        </mxCell>
        <mxCell id="sSFCIGVi9jQbeR_iUd0o-12" value="D+1" style="text;html=1;align=center;verticalAlign=middle;whiteSpace=wrap;rounded=0;" vertex="1" parent="1">
          <mxGeometry x="263" y="21.5" width="21" height="23" as="geometry" />
        </mxCell>
        <mxCell id="sSFCIGVi9jQbeR_iUd0o-13" value="0" style="text;html=1;align=center;verticalAlign=middle;whiteSpace=wrap;rounded=0;" vertex="1" parent="1">
          <mxGeometry x="96" y="39" width="13" height="14" as="geometry" />
        </mxCell>
        <mxCell id="sSFCIGVi9jQbeR_iUd0o-14" value="1" style="text;html=1;align=center;verticalAlign=middle;whiteSpace=wrap;rounded=0;" vertex="1" parent="1">
          <mxGeometry x="95" y="14" width="13" height="14" as="geometry" />
        </mxCell>
        <mxCell id="sSFCIGVi9jQbeR_iUd0o-15" value="1" style="text;html=1;align=center;verticalAlign=middle;whiteSpace=wrap;rounded=0;" vertex="1" parent="1">
          <mxGeometry x="160" y="-26" width="13" height="14" as="geometry" />
        </mxCell>
        <mxCell id="sSFCIGVi9jQbeR_iUd0o-16" value="0" style="text;html=1;align=center;verticalAlign=middle;whiteSpace=wrap;rounded=0;" vertex="1" parent="1">
          <mxGeometry x="160" y="-4" width="13" height="14" as="geometry" />
        </mxCell>
        <mxCell id="sSFCIGVi9jQbeR_iUd0o-17" value="" style="endArrow=none;dashed=1;html=1;rounded=0;" edge="1" parent="1">
          <mxGeometry width="50" height="50" relative="1" as="geometry">
            <mxPoint x="255" y="29" as="sourcePoint" />
            <mxPoint x="114" y="-37" as="targetPoint" />
            <Array as="points">
              <mxPoint x="254" y="-65" />
              <mxPoint x="114" y="-63" />
            </Array>
          </mxGeometry>
        </mxCell>
        <mxCell id="sSFCIGVi9jQbeR_iUd0o-18" value="could be connected&lt;div&gt;from 1 stg to the other since Q-1 essentially is Q from the last stage (thus Q)&lt;/div&gt;" style="text;html=1;align=center;verticalAlign=middle;whiteSpace=wrap;rounded=0;" vertex="1" parent="1">
          <mxGeometry x="56" y="-106" width="286" height="30" as="geometry" />
        </mxCell>
      </root>
    </mxGraphModel>
  </diagram>
</mxfile>
